<?xml version="1.0" encoding="UTF-8"?>
<!DOCTYPE svg  PUBLIC '-//W3C//DTD SVG 1.1//EN'  'http://www.w3.org/Graphics/SVG/1.1/DTD/svg11.dtd'>
<svg enable-background="new 0 0 1315 1242" version="1.1" viewBox="0 0 1315 1242" xml:space="preserve" xmlns="http://www.w3.org/2000/svg">
	<path d="m656.44 477.77c-5.4502-4.67-10.6-9.72-16.03-14.36-2.5-3.02-5.3101-5.7599-8.0901-8.52l0.01-0.17c-11.71-12.53-21.81-26.45-30.88-40.98-0.98-1.6799-1.9399-3.3799-2.8999-5.0599-3.95 0.6-7.8701 1.2999-11.8 1.9701-1.4399 0.2599-2.8398 0.6399-4.23 1.0399-8.3799 0.91-16.57 3.27-24.95 4.35-1.99 6.88-4.8599 13.46-7.22 20.2-1.23 2.26-2.27 4.61-3.26 6.99-3.01 5.94-6.01 11.89-9.4199 17.63-0.3801 0.61-1.7751 2.743-1.8901 2.76-2.71 4.95-6.2 9.4-9.1699 14.19 43.28 0.0799 86.56 0.1499 129.83-0.0401z" fill="none"/>
	<path d="m519.04 801.89c1.76 0 3.54 0.01 5.3101 0.03 0.02-74.27 0.02-148.54 0.01-222.81-1.8-0.0099-3.5901-0.02-5.3701-0.0099 0.0701 74.26-0.0298 148.53 0.05 222.79z" fill="none"/>
	<path d="m514.39 579.06l-0.6001 0.01c-1.76 0.02-3.51 0.1-5.24 0.39 0.3501 19.44 0.0601 38.89 0.1499 58.33-0.0198 54.7 0.0601 109.4-0.0298 164.09 1.3398-0.01 2.6799-0.01 4.0298-0.01l1.2302 0.31c0.48-1.12 0.6899-2.27 0.6499-3.47-0.2599-73.21 0.18-146.44-0.1899-219.65z" fill="none"/>
	<path d="m503.62 578.97c-1.77 0.06-3.52 0.14-5.28 0.19 0.1099 74.26 0.01 148.52 0.05 222.78l1.47-0.06c0.48-0.01 1.4299-0.03 1.9099-0.05l1.4001 0.43c0.3298-1.15 0.49-2.31 0.5-3.49-0.08-73.26 0.0299-146.53-0.05-219.8z" fill="none"/>
	<path d="m568.52 746.77c0-32 0.01-64 0-96-0.1399-23.73 0.3301-47.48-0.26-71.21l0.03-0.42c-1.74 0-3.48 0.01-5.21 0.01l0.03 0.33c-0.52 17.4-0.1699 34.82-0.28 52.23-0.01 53.7 0.01 107.4 0.01 161.1-0.01 3.11-0.1699 6.25 0.3701 9.35l1.52-0.3 1.96 0.04 1.5498 0.04c0.6703-18.37 0.0802-36.78 0.2801-55.17z" fill="none"/>
	<path d="m488.02 579.12c0.04 74.16-0.0598 148.32 0.05 222.48 0.5 0.1 1.51 0.31 2.01 0.42 0.3201 0 0.96 0.02 1.28 0.03 0.46-0.18 1.3701-0.55 1.8301-0.73 0.1899-74.06 0.0098-148.14 0.0898-222.2h-5.2599z" fill="none"/>
	<path d="m547.59 578.96c-1.76 0.05-3.52 0.15-5.27 0.36 0.27 74.2 0.0901 148.4 0.0901 222.59 1.4399-0.02 2.8799-0.03 4.3298-0.03l0.9702-0.02c-0.1401-74.3 0.1099-148.6-0.1201-222.9z" fill="none"/>
	<path d="m558.42 579.07l-0.6501 0.02c-1.78 0.03-3.5701 0-5.28 0.5 0.5 5.36 0.1702 10.75 0.26 16.13-0.0701 68.72 0.1501 137.44-0.1099 206.16 1.3499-0.01 2.71 0 4.0701 0.01l1.2598 0.13c0.3101-1.74 0.53-3.51 0.5701-5.26-0.12-72.57 0.12-145.13-0.12-217.69z" fill="none"/>
	<path d="m461.34 579.22c-29.65-0.09-59.32-0.1-88.98 0 0.1399 74.24 0.04 148.48 0.05 222.71 0.52-0.04 1.5701-0.14 2.0999-0.19 0.49 0.08 1.4702 0.23 1.96 0.3l1.1602-0.1201c0.05-29.59-0.1401-59.18 0.1001-88.77 20.74 0.2 41.48 0 62.23 0.11 0.0298-1.63 0.0898-3.25 0.1599-4.86-20.8-0.6-41.64-0.13-62.46-0.24 0.1399-1.77-0.1602-3.62 0.3999-5.31 20.65 0.2599 41.31 0.02 61.96 0.12-0.03-1.7401-0.0398-3.46-0.05-5.18l-0.8699 0.18c-5.8-0.36-11.6-0.09-17.39-0.17-14.71 0.18-29.44-0.38-44.12 0.28-0.05-1.76 0-3.51 0.02-5.25 20.79 0.07 41.57-0.03 62.36 0.05 0-1.75 0.0103-3.48 0.03-5.21-17.43-0.02-34.86-0.0099-52.29-0.0099-3.3701 0.0099-6.75-0.1801-10.09 0.3199 0.05-1.81 0.0701-3.62 0.04-5.41 20.78 0.09 41.57-0.03 62.35 0.06-0.01-1.77-0.01-3.54 0-5.3-20.84 0.13-41.69-0.15-62.52 0.14 0.4001-1.72 0.23-3.4901 0.2402-5.22 20.75 0.11 41.5-0.03 62.26 0.06-0.0098-1.69 0-3.38 0.03-5.05-20.75-0.22-41.5-0.12-62.25-0.05l-0.24-0.85c0.1301-13.57 0.02-27.14 0.05-40.71 26.39-0.03 52.79-0.05 79.18 0 1.7202-0.03 3.4399-0.29 5.1401-0.6l-0.49-1.57c0.1299-0.39 0.3799-1.15 0.5-1.54l0.01-1.44c-2.7002-0.53-5.4702-0.38-8.2002-0.37-25.34 0.04-50.69-0.04-76.03 0.04 0.02-1.75 0.0098-3.5 0.1499-5.23 27.97 0.16 55.94 0 83.91 0.08l-0.0898-1.38c0-1.26 0-2.52 0.01-3.76-27.99-0.04-55.99-0.06-83.98 0 0.02-1.7-0.02-3.4 0.1799-5.08 27.91 0.14 55.83-0.0099 83.74 0.07 0-1.72 0.02-3.44 0.05-5.14l-0.78 0.01c-27.7 0.05-55.4-0.01-83.09 0.03-0.1199-1.74-0.0901-3.48-0.0798-5.21 27.99 0.03 55.98-0.02 83.97 0.03-0.02-1.25-0.04-2.5-0.05-3.73l0.1699-1.4c-28.12 0.11-56.25-0.13-84.37 0.12 0.47-1.71 0.26-3.52 0.3599-5.26 28.01-0.14 56.02 0.17 84.02-0.16l-0.45-1.53c0.1899-0.44 0.5601-1.31 0.75-1.75-0.1899-0.4199-0.5701-1.25-0.77-1.6599z" fill="none"/>
	<path d="m341.27 579.21c0.1702 74.23 0.05 148.45 0.05 222.68l1.23-0.01c1.3401-0.01 2.6899-0.01 4.04 0.01-0.0901-58.38-0.01-116.76-0.04-175.14 0.1602-15.7-0.3198-31.43 0.25-47.11-1.75-0.74-3.6899-0.43-5.53-0.43z" fill="none"/>
	<path d="m477.61 801.9c1.3101-0.02 2.6299-0.03 3.96-0.02l1.3 0.03c-0.01-74.25-0.02-148.51 0-222.76-1.71-0.02-3.4202-0.05-5.1201-0.07-0.28 74.27 0 148.55-0.1399 222.82z" fill="none"/>
	<path d="m351.86 579.1c-0.05 0.45-0.1499 1.34-0.2 1.79 0.01 73.68 0.05 147.36-0.02 221.03 1.3298-0.02 2.6699-0.03 4.01-0.03l1.25 0.03c-0.05-74.21-0.1201-148.42 0.03-222.63-1.6901-0.0701-3.3801-0.1301-5.07-0.1901z" fill="none"/>
	<path d="m336.49 621.8c-0.0898-14.28 0.28-28.6-0.3499-42.86-1.72 0.07-3.4299 0.11-5.1501 0.14l0.0601 0.16c-0.3 74.2-0.01 148.41-0.1499 222.62l1.1199 0.03c1.3801 0 2.78 0.02 4.1702 0.05 0.52-4.69 0.2598-9.41 0.29-14.11-0.0104-55.34 0.0297-110.69 0.0097-166.03z" fill="none"/>
	<path d="m362.03 579.12c0.0801 74.12-0.03 148.24 0.0601 222.35 0.47 0.15 1.4099 0.46 1.8799 0.61 0.3401-0.01 1.0103-0.03 1.3501-0.04l1.9199-0.52c0.0601-74.12-0.04-148.26 0.04-222.39-1.75-0.01-3.5-0.01-5.25-0.01z" fill="none"/>
	<path d="m578.64 579.07c-1.6799 0.01-3.3601 0.02-5.03 0.03l-0.5701-0.02c-0.1199 72.57-0.05 145.13-0.0701 217.69-0.0498 1.74 0.0801 3.5 0.4001 5.24 1.78-0.09 3.5798-0.14 5.3799-0.17-0.1698-74.26 1e-4 -148.51-0.1098-222.77z" fill="none"/>
	<path d="m415.92 430.63c7.7998-5.17 15.27-11.22 20.93-18.72 0.4099-0.38 1.23-1.15 1.6399-1.5299h0.0801c11.64-14.43 20.11-31.94 22.22-50.45 1.52-9.4502 1.73-19.13 0.25-28.6 0.1501-1.9399-0.29-3.8601-0.5999-5.75-4.5801-24.36-18.2-47.06-37.94-62.13-0.3999-0.27-1.2-0.8301-1.5999-1.1101-0.3801-0.27-1.1501-0.8101-1.53-1.0801-0.5601-1.26-2.3301-1.6799-3.3899-2.53-28.6-19.41-67.21-22.54-98.69-8.3599-26.08 11.42-46.87 34.17-55.91 61.17-7.29 21.3-7.25 44.98 0.03 66.28 8.21 24.38 25.96 45.36 48.63 57.53 18.67 10.16 40.57 14.25 61.66 11.53 0.7402-0.13 2.2302-0.38 2.9702-0.51 14.71-1.8599 28.86-7.6499 41.25-15.74zm-16.24-127.16c6.7-0.67 12.83 3.4501 16.22 8.9901 1 3.73 1.6799 7.6099 1.11 11.48-0.1901 0.5898-0.5599 1.77-0.74 2.3599-0.28 0.6001-0.58 1.1901-0.88 1.79-2.1101 3.8201-5.74 6.3601-9.64 8.1001-2.86 0.49-5.77 0.47-8.65 0.2999-5.98-1.85-11.29-6.52-12.52-12.84-2.53-9.4899 5.33-19.84 15.1-20.18zm-18.8 65.82c1.43-1.6599 3.04-3.1499 4.65-4.6199 3.98-2.1401 8.69-3.15 13.13-2.03 5.94 1.3201 10.8 6.27 12.25 12.14 1.48 5.55-0.4301 11.74-4.49 15.73-3.97 4.0299-10.16 5.83-15.65 4.33-6.26-1.4299-11.34-6.8799-12.42-13.2-0.8401-4.2701 0.3299-8.68 2.5299-12.35zm-87.1-31.54c-2.85-8.76 3.2-18.85 12.13-20.75 7.55-1.92 16.01 2.3099 19.01 9.49 3.87 8.3099-0.59 19.19-9.27 22.23-8.67 3.65-19.56-1.89-21.87-10.97zm55.55 55.21c-2.23 7.4799-9.68 13.26-17.62 12.45-8.39-0.55-15.57-8.17-15.31-16.62-0.26-8.7799 7.62-16.66 16.38-16.51 7.58-0.3198 14.34 5.25 16.53 12.33 0.3001 2.77 0.3001 5.5701 0.0201 8.3501zm-2.55-87.87c-9.62-1.1-16.52-11.69-13.59-20.95 1.41-5.15 5.54-9.4 10.57-11.11 10.23-3.98 22.67 4.6702 22.01 15.72 0.42 9.7701-9.4299 18.08-18.99 16.34z" fill="none"/>
	<path d="m960.81 801.89c1.76-0.01 3.53 0 5.3201 0.03-12.6-74.28-25.09-148.57-37.76-222.84-1.74 0.01-3.46 0.01-5.1702 0.01-24.17 54.94-48.3 109.89-72.48 164.81-23.43-54.94-47.01-109.82-70.4-164.78-1.8799-0.02-3.75-0.03-5.6201-0.03 24.23 56.6 48.52 113.19 72.77 169.78 1.1301 2.69-1.4399 5.1-2.3298 7.52-25.07-59.18-50.58-118.16-75.77-177.29h-5.8c26.21 61.44 52.79 122.73 79.07 184.14-1.05 2.15-1.95 4.4-3.3701 6.35-4.4399-11.27-9.4099-22.32-14.05-33.51-22.21-52.33-44.28-104.71-66.59-156.99-2.02 0.01-4.04 0-6.04 0.01 27.95 65.91 55.96 131.8 84.03 197.67-0.95 2.04-1.8899 4.09-2.8601 6.13-29.09-67.94-58.04-135.93-87.21-203.83-1.8501 0.02-3.6899 0.04-5.52 0.08 30.11 70.18 59.96 140.47 90.1 210.64-0.8901 1.96-1.8501 3.89-2.9102 5.78-30.88-72.16-61.6-144.38-92.61-216.48-1.8401 0.01-3.6602 0.02-5.47 0.03-12.47 74.27-25.11 148.52-37.67 222.78 1.7402-0.02 3.5-0.02 5.2603-0.02 11.95-71.07 24-142.12 35.8-213.21 1.78 2.7401 3.28 5.84 3.99 9.04-11.33 68.1-23.09 136.14-34.31 204.27 1.6099-0.05 3.2197-0.0699 4.8398-0.08 11.18-65.37 22.3-130.74 33.3-196.13 1.4299 3.15 3.7 6.35 3.53 9.93-10.5 62.06-20.88 124.14-31.44 186.19 1.77-0.01 3.54-0.01 5.3298 0.01 8.4299-50.11 16.93-100.2 25.4-150.3 1.73-9.22 2.8101-18.57 4.9399-27.7 1.0698 3.63 4.04 7.07 3.0801 11.03-9.3601 55.68-18.74 111.35-28.07 167.02 1.5701-0.04 3.1399-0.07 4.72-0.09 9.1401-53.72 18.34-107.44 27.57-161.16 1.1699 3.55 3.6099 7.04 3.05 10.91-8.3601 50.1-16.64 100.22-25.01 150.32 1.6602-0.03 3.3401-0.04 5.0303-0.04 8.0598-47.67 16.23-95.33 24.34-143 1.72 3.02 2.8799 6.3 4.28 9.47 19.17 44.53 38.14 89.14 57.4 133.63 1.95-0.09 3.9102-0.16 5.8701-0.27 30.85-71.13 62.13-142.08 93.07-213.17 0.8398 3.02 2.04 6.29 1.5098 9.42-29.83 67.98-59.59 136-89.45 203.97l5.2412-0.0046 85.786-195.44 1.7283 10.048-81.373 185.39 0.1379-1e-4c0.6882-0.0779 2.6887-0.1099 5.1091-0.1189l77.588-176.76 1.728 10.048-73.182 166.73c2.9155 0.015 5.4509 0.0362 6.2368 0.0284 14.59-33.76 29.44-67.41 44.09-101.14 8.3201-18.6 16.05-37.47 24.64-55.93 0.1499 3.25 1.7598 6.65 0.7898 9.85-21.51 49.1-43.03 98.19-64.55 147.28 1.9902-0.03 3.9902-0.07 6-0.13 20.22-46.16 40.3-92.39 60.84-138.4 7.8603 46.16 15.75 92.32 23.5 138.51z" fill="none"/>
	<path d="m677.72 785.8c-29.6-0.02-59.2 0.3-88.8-0.16 0.0098-1.45-0.03-2.89-0.1101-4.32 27.97 0.12 55.93 0.01 83.9 0.06 2.7798 0 5.5898 0.2 8.3398-0.36l-0.3899-1.32c0.0198-0.47 0.05-1.4 0.0598-1.86l0.27-1.3c-2.75-0.53-5.5601-0.34-8.3298-0.33-25.99 0.01-51.99-0.04-77.98 0.02-2.0498-0.0699-4.1997 0.27-6.1399-0.53 0.8701-1.29 0.8501-2.56-0.05-3.83l0.4502-0.78c30.63-0.17 61.26-0.06 91.89-0.06l-0.1101-1.44c0-0.42 0.0103-1.27 0.02-1.7l0.28-1.58c-4.72-0.84-9.55-0.18-14.31-0.38-25.92-0.07-51.85 0.11-77.76-0.08 0.02-1.69 0.04-3.38 0.0701-5.05 30.6 0.06 61.2 0.01 91.8 0.03l-0.0898-1.04c-0.0103-1.3701 0-2.73 0.0098-4.09-30.54 0.14-61.1-0.25-91.63 0.2l-0.1401-0.06c0.1101-58.87-0.0798-117.74 0.0901-176.6-1.76-0.1-3.52-0.17-5.27-0.24-0.27 74.3 0 148.61-0.1299 222.92l0.8799-0.03c30.55-0.22 61.12 0.32 91.66-0.26 1.5103 0.26 3.0601 0.29 4.6201 0.38-0.05-1.39-0.0898-2.78-0.1099-4.15l0.0898-1.24c-30.58 0.08-61.15-0.03-91.73 0.06-0.1001-1.66-0.1001-3.3-0.1299-4.94 30.62-0.1 61.23-0.01 91.84-0.04-0.04-1.31-0.0698-2.6-0.1001-3.88l0.4001-1.34c-1.0599-0.5299-2.1797-0.75-3.3599-0.68z" fill="none"/>
	<path d="m971.52 801.93c1.6401-0.06 3.3101-0.1 4.98-0.14-12.51-74.2-25.04-148.4-37.36-222.63-1.79-0.03-3.5801-0.05-5.3501-0.07 12.57 74.28 25.13 148.57 37.73 222.84z" fill="none"/>
	<path d="m965.16 579.11c12.53 74.26 25.13 148.51 37.69 222.76 1.73 0.01 3.48 0.02 5.24 0.06-12.53-74.29-25.11-148.57-37.71-222.84-1.75 0.0101-3.49 0.0101-5.2199 0.02z" fill="none"/>
	<path d="m722.1 366.55c12.27 12.73 27.25 22.87 43.65 29.48l1.1902-0.22c0.2 0.3201 0.6099 0.9399 0.8098 1.26 9.1301 2.7501 18.27 6.23 27.87 6.72 11.67 1.87 23.62 1.8601 35.3 0.0801 2.5 0.1499 4.95-0.4401 7.3999-0.8901 1.3701-0.25 2.79-0.48 4.1899-0.72 8.9399-2.52 17.86-5.2901 26.21-9.44 1.1602-0.54 2.28-1.1199 3.4502-1.6699l0.24 0.03c9.5701-5.23 19.07-11.28 26.79-18.91 2.5701-2.3699 5.3101-4.6399 7.4402-7.4399 0.7-0.79 1.4199-1.5701 2.1399-2.3501 2.78-2.6799 5.03-5.8398 7.3601-8.8999 1.76-2.29 3.8201-4.4299 5.01-7.1001-0.0271-0.3601 9.0298-15.45 10.81-22.08 0.2-0.1602 4.1899-10.69 5.3599-15.87 7.8-31.74 3.1899-66.72-13.86-94.74-0.48-0.9199-0.9402-1.8301-1.3801-2.73-0.99-1.6299-2.1101-3.1499-3.3899-4.53-2.4202-4.8899-6.2002-9.04-9.9102-13 0 0-6.0193-5.8191-5.79-5.8298-2.8599-3.8601-6.8599-6.6501-10.44-9.77-2.01-1.4202-10.8-7.6401-11.78-8.3201-9.3599-5.6401-19.34-10.3-29.79-13.5-5.4001-1.3501-10.77-2.9299-16.29-3.6799-2.6201-0.6802-5.3301-1-8.03-1-14.76-0.6401-29.8-0.8701-44.19 3.0498l0.03 0.5c-2.01 0.1201-4.03 0.3801-5.95 0.99-8.8101 2.76-17.34 6.4202-25.41 10.92l-0.04 0.27c-3.51 1.8398-6.8899 3.9199-10.05 6.2998-3.1299 1.53-5.6899 4.0701-8.45 6.1702-3.01 2.6799-6.52 5-8.6101 8.54-0.3198 0.1499-0.96 0.4399-1.2798 0.5898l-0.9402 0.97c-0.7898 0.6702-1.5798 1.4202-1.9199 2.4102-2.0901 1.71-3.8899 3.75-5.26 6.0698-4.21 4.3901-7.3999 9.7302-10.6 14.9-18.3 30.4-22.63 68.64-12.13 102.47 5.8301 18.99 16.26 36.53 30.07 50.8 0.04 0.04 0.1301 0.1298 0.1701 0.1699zm129.17-134.03c0.0299-0.03 0.1-0.09 0.14-0.12 4.62-4.0701 11.06-6.22 17.18-5.01 7.6201 1.09 14 7.04 16.4 14.25 0.67 2.95 0.6801 5.99 0.64 9-1.02 5.62-4.2 10.85-9 14-7.4299 5.21-18.26 4.3999-25.01-1.5901-0.03-0.0299-0.1-0.0898-0.1399-0.1299-8.9-7.6201-9.0499-22.67-0.21-30.4zm-13.98 85.3c0.7-6.59 4.8099-12.74 10.74-15.75 6.35-3.45 14.54-3.1199 20.64 0.74 4.58 2.7101 7.3799 7.4301 9.26 12.26 0.3999 3.1901 0.45 6.4401-0.0901 9.6201-1.73 5.3699-5.0499 10.44-10.14 13.13-6.27 3.73-14.53 3.54-20.65-0.3799-3.6899-2.1901-6.23-5.75-8.6399-9.2001-0.68-3.42-1.5701-6.9-1.12-10.42zm-56.13-112.17c1.02-6.76 5.72-12.41 11.64-15.61 0.54-0.1699 1.6301-0.5 2.1702-0.6699 5.0399-2.04 10.4-1.02 15.34 0.76 4.05 2.52 7.9102 5.75 9.8501 10.24 2.96 6.61 2.22 14.84-2.1899 20.64-4.99 6.9-14.6 10.28-22.7 7.35-9.4601-2.71-15.83-13.04-14.11-22.71zm12.91 110.72c0.04 0.03 0.1101 0.0801 0.1401 0.11 1.3599 1.13 2.6099 2.39 3.73 3.76 0.03 0.0399 0.09 0.11 0.1099 0.15 2.8801 4.1 4.4202 9.23 3.8401 14.24-0.75 8.26-7.0601 15.73-15.14 17.73-6.33 1.86-13.46 0.0801-18.48-4.1-6.16-5.03-8.9301-13.89-6.5-21.49 1.84-6.6 7.36-11.93 13.92-13.8 6.22-2.13 13.17-0.38 18.38 3.4zm-47.89-72c5.76-1.78 12.42-1.28 17.5 2.15 6.36 4 10.2 11.65 9.34 19.16-0.51 10.62-10.73 19.52-21.31 18.61-10.63-0.1899-19.81-9.9399-19.52-20.54-0.0902-8.5899 5.8898-16.66 13.99-19.38z" fill="none"/>
	<path d="m954.76 579.1c12.51 74.27 25.01 148.54 37.4 222.82 1.76-0.0099 3.53-0.0099 5.3098 0.01-12.6-74.27-25.05-148.57-37.77-222.82-1.6599-0.0099-3.2997-0.0099-4.9399-0.0099z" fill="none"/>
	<path d="m944.09 579.11c12.69 74.24 25.14 148.52 37.77 222.77 1.74 0 3.49 0 5.26 0.02-12.56-74.27-25.16-148.54-37.69-222.82-1.7898 0.0101-3.5698 0.0101-5.3398 0.03z" fill="none"/>
	<path d="m795.27 228.36c8.1 2.9299 17.71-0.45 22.7-7.35 4.4099-5.8 5.1499-14.03 2.1899-20.64-1.9399-4.49-5.8-7.72-9.8501-10.24-4.9399-1.78-10.3-2.8-15.34-0.76-0.54 0.1699-1.6301 0.5-2.1702 0.6699-5.9199 3.2001-10.62 8.8501-11.64 15.61-1.7199 9.67 4.65 20 14.11 22.71z"/>
	<path d="m851.48 262.92c0.0399 0.04 0.1099 0.1 0.1399 0.1299 6.75 5.99 17.58 6.8 25.01 1.5901 4.8-3.15 7.98-8.38 9-14 0.04-3.01 0.03-6.05-0.64-9-2.4-7.21-8.7799-13.16-16.4-14.25-6.1199-1.21-12.56 0.9399-17.18 5.01-0.04 0.03-0.1101 0.09-0.14 0.12-8.84 7.7299-8.6901 22.78 0.21 30.4z"/>
	<path d="m751.71 284.29c10.58 0.9102 20.8-7.99 21.31-18.61 0.86-7.51-2.98-15.16-9.34-19.16-5.0801-3.4301-11.74-3.9301-17.5-2.15-8.1001 2.72-14.08 10.79-13.99 19.38-0.2899 10.6 8.89 20.35 19.52 20.54z"/>
	<path d="m343.76 273.03c-5.03 1.7101-9.16 5.9601-10.57 11.11-2.93 9.26 3.97 19.85 13.59 20.95 9.5601 1.74 19.41-6.5699 18.99-16.34 0.6599-11.05-11.78-19.7-22.01-15.72z"/>
	<path d="m847.05 337.44c6.1201 3.9199 14.38 4.1099 20.65 0.3799 5.09-2.6899 8.4099-7.76 10.14-13.13 0.54-3.1801 0.49-6.4301 0.0901-9.6201-1.8801-4.83-4.6801-9.5499-9.26-12.26-6.1001-3.8599-14.29-4.1899-20.64-0.74-5.9301 3.01-10.04 9.16-10.74 15.75-0.4501 3.52 0.4401 7 1.12 10.42 2.4099 3.4501 4.9499 7.01 8.6399 9.2001z"/>
	<path d="m397.1 336.49c2.88 0.17 5.79 0.1901 8.65-0.2999 3.9-1.74 7.5299-4.28 9.64-8.1001 0.3-0.6 0.6-1.1899 0.88-1.79 0.1801-0.5898 0.5499-1.77 0.74-2.3599 0.5699-3.8701-0.11-7.75-1.11-11.48-3.39-5.54-9.52-9.6602-16.22-8.9901-9.77 0.34-17.63 10.69-15.1 20.18 1.23 6.3199 6.54 10.99 12.52 12.84z"/>
	<path d="m761.77 326.77c-2.4301 7.6 0.34 16.46 6.5 21.49 5.02 4.1801 12.15 5.96 18.48 4.1 8.08-2 14.39-9.47 15.14-17.73 0.5801-5.01-0.96-10.14-3.8401-14.24-0.0199-0.04-0.0798-0.1101-0.1099-0.15-1.1201-1.37-2.3701-2.63-3.73-3.76-0.03-0.0299-0.1001-0.08-0.1401-0.11-5.21-3.78-12.16-5.53-18.38-3.4-6.56 1.8699-12.08 7.2-13.92 13.8z"/>
	<path d="m324.92 326.49c-3-7.1801-11.46-11.41-19.01-9.49-8.93 1.9-14.98 11.99-12.13 20.75 2.3101 9.08 13.2 14.62 21.87 10.97 8.6799-3.0399 13.14-13.92 9.2699-22.23z"/>
	<path d="m390.77 394.84c5.49 1.5 11.68-0.3 15.65-4.33 4.0599-3.99 5.97-10.18 4.49-15.73-1.45-5.8699-6.3101-10.82-12.25-12.14-4.44-1.12-9.15-0.1101-13.13 2.03-1.61 1.47-3.22 2.96-4.65 4.6199-2.2 3.6702-3.37 8.0801-2.53 12.35 1.0801 6.3201 6.1601 11.77 12.42 13.2z"/>
	<path d="m332.78 372.28c-8.7599-0.1499-16.64 7.7301-16.38 16.51-0.26 8.4501 6.92 16.07 15.31 16.62 7.94 0.81 15.39-4.97 17.62-12.45 0.28-2.78 0.28-5.5801-0.02-8.3501-2.1901-7.0801-8.9501-12.65-16.53-12.33z"/>
	<path d="m897.93 1046c-2.01-10.84-4.5801-21.58-6.45-32.44 0.1899-0.21 0.5798-0.64 0.7699-0.86 6.17-0.38 12.37 0.14 18.55-0.2201-0.0199-14.23-0.0099-28.46 0.1001-42.69 0.02-0.36 0.05-1.07 0.0701-1.43-0.3-14.06-0.2301-28.13-0.05-42.19-66.76 0.02-133.51 0.03-200.26 0-27.3 1.13-54.64 0.39-81.96 0.59-36.67 0.02-73.33 0.01-110 0-6.1602-0.06-12.36 0.29-18.48-0.58 0.13 28.91 0 57.81 0.0699 86.71 7.4401-0.0599 14.88-0.01 22.32-0.02-0.11 0.55-0.3301 1.66-0.4399 2.2101-0.02 0.1-0.0701 0.2899-0.0901 0.38-9.73 47.09-19.05 94.26-28.61 141.39-3.45 17.65-7.35 35.23-10.49 52.94h33c13.19-65.65 26.45-131.29 39.67-196.93 15.01-0.0199 30.02 0.0701 45.03-0.0499 0.6499 4.9299 0.8799 9.91 1.1399 14.88 0.26 6.99 1.2201 13.97 1.1201 20.98-1.51 7.35-3.9 14.5-5.73 21.78-12.66 46.44-25.19 92.91-37.9 139.34h33.68c5.55-19.89 10.77-39.88 16.33-59.76 0.6301 7.38 1.1501 14.79 1.3601 22.21 0.28 3.9301 0.6 7.8601 0.8199 11.81 0.0499 1.01 0.1 2.04 0.15 3.1l0.0701 1.3c0.6099 7.1 0.9399 14.22 1.4199 21.34h38.71c0.04-0.3101 0.1201-0.9301 0.17-1.24-0.16-1.5601-0.28-3.1-0.38-4.63-1.3301-20.46-2.73-40.92-3.75-61.39-0.0601-0.92-0.1799-2.78-0.24-3.7-0.77-9.8-1.4-19.61-1.8401-29.41-0.1299-1.8101-0.26-3.58-0.3499-5.37-0.28-3.59-0.6101-7.1801-0.6401-10.78-0.5599-7.09-0.9299-14.2-1.3199-21.3-0.96-11.34-1.4301-22.72-2.24-34.07-0.1901-2.39-0.2899-4.8199 0.41-7.12 1.62-5.99 3.27-11.98 4.8999-17.96 16.27 0.0599 32.54 0.08 48.82 0 5.85-0.89 11.81-0.7001 17.7-0.2001 5.96 0.51 11.95 0.0801 17.93 0.3301 8.84 0.22 17.69 0 26.53 0.08-0.3198 10.98-0.8899 21.95-1.5199 32.92l-0.0499 0.8199c-0.1501 2.17-0.3 4.35-0.3901 6.55-1.0699 22.26-2.1499 44.54-3.47 66.79-0.1 3.0901-0.29 6.1801-0.47 9.28-1.22 25.56-2.4299 51.13-3.99 76.68l-0.0701 1.3199c0.01 0.6 0.02 1.8 0.03 2.4h38.8c0.37-8.03 0.72-16.06 1.3101-24.08 0.0399-0.67 0.1199-2.02 0.1599-2.7001 0.01-0.85 0.03-1.6899 0.0701-2.52 0.1499-4.4099 0.46-8.7999 0.74-13.19 0.8099-20.47 2.01-40.92 3.1299-61.38 9.25 34.67 18.67 69.29 28.2 103.87h33.46c-14.28-52.36-28.52-104.74-42.66-157.14-0.49-1.62-0.9399-3.23-1.3699-4.84-3.24-11.57-6.27-23.2-9.4601-34.78 4.2101-0.53 8.4301 0.13 12.66-0.04 6.22-0.1799 12.44-0.1599 18.67-0.0499 9.02 0.1799 18.05 0.0699 27.08 0.1 2.08 10.94 4.38 21.85 6.55 32.78l0.1799 0.87 0.27 1.28c10.87 53.95 21.61 107.92 32.68 161.82h33c-10.96-53.28-21.54-106.64-32.36-159.95-0.2799-1.3-0.5399-2.57-0.7999-3.84z"/>
	<path d="m1268.8 745.95c0.01-4.89 0.0601-9.79 0.01-14.68-0.0601-10.99-0.02-21.97-0.01-32.96-0.0151-4.5483-0.0273-9.0966-0.0308-13.644h-2e-4v-30.546c-0.0095 0-0.0193 1e-4 -0.0288 1e-4 0-3.4944 0.0151-6.9887 0.0288-10.483v-20.521c-0.0056-1.3828-0.0059-2.7659 0-4.1492v-24.36c-0.0046-2.3292-0.0117-4.658-0.0288-6.9865 0.0798-33 0.0498-66.01 0.02-99.01l-0.0103-0.64c-0.1099-12.18 0.2402-24.36-0.1499-36.54-5.6802 3.28-11.16 6.89-16.9 10.06-0.8601 0.47-1.71 0.93-2.5303 1.41-14.25 9.1299-28.91 17.65-43.34 26.5-15.04 9.11-30.1 18.2-45.13 27.33-6.73 3.84-13.09 8.41-20.03 11.8-22.62 0.42-45.27 0.08-67.89 0.17-4.02 0.09-8.04 0.12-12.05-0.01-6.6099-0.02-13.21 0.05-19.81 0.01-0.03 19.02-0.02 38.04 0 57.06 0 0.46 0.01 1.37 0.01 1.83 0.01 5.36-0.03 10.71-0.0901 16.07-0.5701 0.2-1.72 0.6-2.29 0.8 0.5801-0.17 1.75-0.53 2.3301-0.71 0.02 9.78 0.04 19.56 0.02 29.33 0 7.2 0.04 14.41 0.02 21.61v0.84c-0.05 5.27-0.01 10.54-0.03 15.81v0.47c0.04 16.58-0.1001 33.16 0.0698 49.74 7.54 0.18 15.09 0.12 22.63 0.08 6.0701 0 12.15-0.01 18.23 0 10.73 0.07 21.47-0.04 32.2 0.08h0.3901c5.8599-0.14 11.72-0.07 17.59-0.08 4.0303 0.17 8.54-0.86 12.01 1.79 12.01 7.6 24.52 14.41 36.32 22.35 1.0701 0.54 2.1401 1.1 3.23 1.7 1.6099 0.91 3.1802 1.9 4.77 2.88 0.3701 0.22 1.1001 0.67 1.47 0.9 3.9802 2.25 7.74 4.91 11.93 6.8l2.4993 1.5454c0.0645-0.0472 0.1233-0.0903 0.1709-0.1254 0.3093 0.2842 0.6292 0.5533 0.9517 0.8194l26.958 16.669-2e-4 2e-4c12.141 7.3602 24.278 14.726 36.46 22.021 0.0801-17.07 0.02-34.14 0.02-51.2 0-0.4599 0.01-1.3698 0.01-1.8298z"/>
	<path d="m1045.5 390.54c2.0498-4.3699 3.8999-8.8398 5.71-13.31 0.7998-2.1899 1.6399-4.3699 2.52-6.5398 5.5698-15 9.5498-30.56 12.23-46.32 0.0498-0.3101 0.1499-0.9399 0.2-1.26 6.8601-44.71 1.8201-91.22-15.09-133.21-0.1499-0.3601-0.45-1.0701-0.6001-1.4202-2.1199-4.97-4.4299-9.8499-6.6799-14.75-3.01-6.27-6.3599-12.37-9.8999-18.35-8.78-14.85-19.29-28.61-30.79-41.46-22.55-24.41-49.79-44.5-79.97-58.44-59.09-27.63-129.03-30.75-190.41-8.72l-0.7998 0.3c-38.26 13.69-72.91 37-100.41 66.88-11.45 12.6-21.41 26.43-30.56 40.77-3.2302 6.01-6.6401 11.93-9.6401 18.07-2.5 5.1501-4.8201 10.39-7.0701 15.66l-0.5598 1.3098c-6.7102 16.89-11.76 34.45-14.7 52.39-10.33 2.04-20.67 4.1299-31.05 5.8499-4.5801-8.25-10.4-15.7-15.73-23.46-0.0601-0.0698-0.1702-0.21-0.23-0.28-3.78-3.8198-6.99-8.1499-10.7-12.02-7.4302-8.0298-15.56-15.39-24.1-22.22l-0.6401-0.51c-11.41-8.6199-23.51-16.39-36.36-22.68-1.1802-0.5801-2.3601-1.1599-3.54-1.71-5.6099-2.53-11.29-4.9299-17.02-7.1799-5.26-1.53-10.42-3.3901-15.72-4.8201-36.35-10.08-75.46-9.9299-111.78 0.24-31.85 8.9099-61.5 25.58-85.67 48.17-24.78 22.99-43.84 52.12-54.93 84.06-12.77 36.61-14.98 76.81-6.4099 114.63 8.6001 38.39 28.5 74.14 56.48 101.78 26.61 26.58 60.59 45.53 97.06 54.64-0.1699 7.7-0.0701 15.4-0.0801 23.11-14.04 0.19-28.08-0.02-42.13 0.11-0.1301-0.51-0.4001-1.52-0.53-2.02-15.87-5.86-31.72-11.74-47.57-17.64-2.1101-0.83-4.3999-0.88-6.6399-0.86-10.23 0.08-20.46 0.02-30.69 0.04 5.7998 11.89 11.48 23.83 17.23 35.74 1.7798 3.9 3.98 7.64 5.2798 11.76l0.1702 0.33c6.21 11.23 11.21 23.12 16.98 34.6 5.26 10.91 10.44 21.85 15.75 32.74 6.74-1.98 13.56-3.71 20.35-5.52 3.6001-5.84 7.1802-11.69 10.76-17.54l0.5-0.81c1.4497-0.8199 3.1199-0.81 4.7397-0.81 10.31 0.08 20.62 0.1 30.92-0.0099 1.71-0.01 3.4199 0.2 5.0701 0.62-0.25 86.75-0.0801 173.51-0.0801 260.26 22.23-0.0099 44.47 0 66.71-0.0099-2.55 19.33-5.25 38.64-7.73 57.97-48.93 9.39-97.89 18.67-146.84 27.99l-0.7 0.1499c-4.04 0.51-8.1001 2.14-12.15 1.8-10.47-5.13-20.73-10.72-31.09-16.05-1.28-0.53-2.5801-1.56-4.04-1.08-40.67 7.74-81.34 15.55-122.03 23.25l-0.71 0.15c-1.28 0.23-2.5698 0.47-3.8599 0.71 2.7998 23.92 6 47.8 8.77 71.73 29.01-5.2999 57.95-10.97 86.93-16.42 13.86-2.79 27.87-5 41.64-8.11 7.0601-6.2301 13.19-13.49 20.19-19.8l0.1301-0.14c2.6799-2.98 5.5-5.83 8.3601-8.62 1.0098-1.14 2.52-1.49 3.9399-1.8099 30.51-6.5 60.99-13.16 91.5-19.69 0.6799-0.14 2.02-0.4299 2.6899-0.58 14.43-3.13 28.87-6.2201 43.3-9.36l0.72-0.17c9.1099-1.92 18.19-3.93 27.3-5.85l0.73-0.1801c1.3201-0.3199 2.6499-0.61 3.98-0.89 3.9399-24.62 8.0601-49.22 12.08-73.82l0.2402-1.11c89.33-0.14 178.67-0.02 268-0.0601 10.23 0.26 20.5-0.56 30.69 0.47 86.45-0.28 172.91-0.02 259.35-0.13 25.57 0.17 51.15-0.29 76.7 0.23-0.5498-23.83-0.0999-47.69-0.2397-71.54-0.1301-55.98 0.25-111.96-0.02-167.95-0.26-5.48-0.26-10.97 0.1699-16.44 0.1401-22.57 0.02-45.14 0.05-67.71-0.3901-33.22-0.0801-66.45-0.1599-99.68 0.0498-3.37 0.0198-6.75-0.04-10.12-18.4-0.1-36.81 0.21-55.2-0.15 4.73-4.1801 9.53-8.26 14.05-12.67l2.8301-3.03c2.3298-2.15 4.5999-4.37 6.77-6.68 12.27-13.41 23.4-27.92 32.56-43.64l0.6401-1.03c3.5601-6.1 6.8301-12.37 9.9199-18.72 0.1805-0.35 0.5203-1.0499 0.7005-1.4zm-709.27 411.4c-1.3901-0.03-2.79-0.05-4.1702-0.05l-1.1199-0.03c0.1399-74.21-0.1501-148.42 0.1499-222.62l-0.0601-0.16c1.7202-0.03 3.4302-0.07 5.1501-0.14 0.6299 14.26 0.26 28.58 0.3499 42.86 0.02 55.34-0.02 110.69-0.0098 166.03-0.0302 4.7001 0.2301 9.42-0.2899 14.11zm10.36-175.19c0.03 58.38-0.05 116.76 0.04 175.14-1.3501-0.02-2.7-0.02-4.04-0.01l-1.23 0.01c0-74.23 0.1201-148.45-0.05-222.68 1.8401 0 3.78-0.31 5.53 0.43-0.5698 15.68-0.0898 31.41-0.25 47.11zm10.35 175.17l-1.25-0.03c-1.3401 0-2.6802 0.01-4.01 0.03 0.0701-73.67 0.03-147.35 0.02-221.03 0.05-0.45 0.1499-1.34 0.2-1.79 1.6899 0.06 3.3799 0.12 5.0701 0.19-0.1502 74.21-0.0801 148.42-0.0301 222.63zm10.34-0.3999l-1.9199 0.52c-0.3398 0.0099-1.01 0.03-1.3501 0.04-0.47-0.15-1.4099-0.46-1.8799-0.61-0.0901-74.11 0.02-148.23-0.0601-222.35 1.75 0 3.5 0 5.25 0.01-0.0801 74.13 0.02 148.27-0.04 222.39zm-57.2-366.17c-22.67-12.17-40.42-33.15-48.63-57.53-7.28-21.3-7.3201-44.98-0.03-66.28 9.04-27 29.83-49.75 55.91-61.17 31.48-14.18 70.09-11.05 98.69 8.3599 1.0598 0.8501 2.8298 1.27 3.3899 2.53 0.3799 0.27 1.1499 0.8101 1.53 1.0801 0.3999 0.28 1.2 0.8401 1.5999 1.1101 19.74 15.07 33.36 37.77 37.94 62.13 0.3098 1.8899 0.75 3.8101 0.5999 5.75 1.48 9.47 1.27 19.15-0.25 28.6-2.1099 18.51-10.58 36.02-22.22 50.45h-0.0801c-0.4099 0.3799-1.23 1.1499-1.6399 1.5299-5.6599 7.5-13.13 13.55-20.93 18.72-12.39 8.09-26.54 13.88-41.25 15.74-0.74 0.13-2.23 0.38-2.9702 0.51-21.09 2.7199-42.99-1.3701-61.66-11.53zm151.77 148.81c-28 0.33-56.01 0.02-84.02 0.16-0.0999 1.74 0.1101 3.55-0.3599 5.26 28.12-0.25 56.25-0.01 84.37-0.12l-0.1699 1.4c0.01 1.23 0.03 2.48 0.05 3.73-27.99-0.05-55.98 0-83.97-0.03-0.0103 1.73-0.04 3.47 0.0798 5.21 27.69-0.04 55.39 0.02 83.09-0.03l0.78-0.01c-0.03 1.7-0.05 3.42-0.05 5.14-27.91-0.08-55.83 0.07-83.74-0.07-0.2 1.68-0.1599 3.38-0.1799 5.08 27.99-0.06 55.99-0.04 83.98 0-0.01 1.24-0.01 2.5-0.01 3.76l0.0898 1.38c-27.97-0.08-55.94 0.08-83.91-0.08-0.1401 1.73-0.1299 3.48-0.1499 5.23 25.34-0.08 50.69 0 76.03-0.04 2.73-0.01 5.5-0.16 8.2002 0.37l-0.01 1.44c-0.1201 0.39-0.3701 1.15-0.5 1.54l0.49 1.57c-1.7002 0.31-3.4199 0.57-5.1401 0.6-26.39-0.05-52.79-0.03-79.18 0-0.03 13.57 0.0801 27.14-0.05 40.71l0.24 0.85c20.75-0.07 41.5-0.17 62.25 0.05-0.03 1.67-0.0398 3.36-0.03 5.05-20.76-0.09-41.51 0.05-62.26-0.06-0.0103 1.73 0.1599 3.5-0.2402 5.22 20.83-0.29 41.68-0.01 62.52-0.14-0.01 1.76-0.01 3.53 0 5.3-20.78-0.09-41.57 0.03-62.35-0.06 0.03 1.79 0.01 3.6-0.04 5.41 3.3401-0.5 6.72-0.31 10.09-0.3199 17.43 0 34.86-0.01 52.29 0.0099-0.0198 1.73-0.03 3.46-0.03 5.21-20.79-0.08-41.57 0.02-62.36-0.05-0.02 1.74-0.0701 3.49-0.02 5.25 14.68-0.66 29.41-0.1 44.12-0.28 5.7898 0.08 11.59-0.19 17.39 0.17l0.8699-0.18c0.0103 1.72 0.02 3.4399 0.05 5.18-20.65-0.1-41.31 0.14-61.96-0.12-0.5601 1.69-0.26 3.54-0.3999 5.31 20.82 0.11 41.66-0.36 62.46 0.24-0.0701 1.61-0.1301 3.23-0.1599 4.86-20.75-0.11-41.49 0.09-62.23-0.11-0.2402 29.59-0.05 59.18-0.1001 88.77l-1.1602 0.1201c-0.4897-0.07-1.47-0.22-1.96-0.3-0.5298 0.05-1.5798 0.15-2.0999 0.19-0.01-74.23 0.0898-148.47-0.05-222.71 29.66-0.1 59.33-0.09 88.98 0 0.2 0.41 0.5801 1.24 0.77 1.66-0.1899 0.44-0.5601 1.31-0.75 1.75l0.45 1.5299zm21.06 217.75l-1.3-0.03c-1.3301-0.01-2.6499 0-3.96 0.02 0.1399-74.27-0.1401-148.55 0.1399-222.82 1.7 0.02 3.4102 0.05 5.1201 0.07-0.02 74.25-0.01 148.51 0 222.76zm10.32-0.5901c-0.46 0.18-1.3701 0.55-1.8301 0.73-0.3201-0.0099-0.96-0.03-1.28-0.03-0.5-0.11-1.51-0.32-2.01-0.42-0.1099-74.16-0.01-148.32-0.05-222.48h5.26c-0.0801 74.06 0.1 148.14-0.0899 222.2zm9.98 0.94l-1.4001-0.43c-0.48 0.02-1.4299 0.04-1.9099 0.05l-1.47 0.06c-0.04-74.26 0.0598-148.52-0.05-222.78 1.76-0.05 3.51-0.13 5.28-0.19 0.0798 73.27-0.03 146.54 0.05 219.8-0.01 1.1801-0.1702 2.34-0.5 3.49zm10.76-0.08l-1.2302-0.31c-1.3499 0-2.6899 0-4.0298 0.01 0.0898-54.69 0.01-109.39 0.0298-164.09-0.0898-19.44 0.2002-38.89-0.1499-58.33 1.73-0.29 3.48-0.37 5.24-0.39l0.6001-0.01c0.3699 73.21-0.0701 146.44 0.1899 219.65 0.04 1.2001-0.1699 2.35-0.6499 3.47zm10.42-0.26c-1.77-0.02-3.55-0.03-5.3101-0.03-0.0798-74.26 0.02-148.53-0.05-222.79 1.78-0.01 3.5701 0 5.3701 0.0099 0.01 74.27 0.01 148.54-0.01 222.81zm2.26-324.11c2.97-4.79 6.46-9.24 9.1699-14.19 0.115-0.017 1.51-2.15 1.8901-2.76 3.4099-5.74 6.4099-11.69 9.4199-17.63 0.99-2.38 2.03-4.73 3.26-6.99 2.3601-6.74 5.23-13.32 7.22-20.2 8.3799-1.08 16.57-3.4399 24.95-4.35 1.3901-0.4 2.79-0.78 4.23-1.0399 3.9299-0.6702 7.8501-1.3701 11.8-1.9701 0.96 1.6801 1.9199 3.38 2.8999 5.0599 9.0701 14.53 19.17 28.45 30.88 40.98l-0.01 0.17c2.78 2.76 5.5901 5.5 8.0901 8.52 5.4299 4.64 10.58 9.69 16.03 14.36-43.27 0.1902-86.55 0.1202-129.83 0.0401zm20.13 324.07c-1.45 0-2.8899 0.01-4.3298 0.03 0-74.19 0.1799-148.39-0.0901-222.59 1.75-0.21 3.51-0.31 5.27-0.36 0.23 74.3-0.02 148.6 0.1201 222.9l-0.9702 0.02zm11.23 0.1401l-1.2598-0.13c-1.3601-0.01-2.7202-0.02-4.0701-0.01 0.26-68.72 0.0398-137.44 0.1099-206.16-0.0898-5.38 0.24-10.77-0.26-16.13 1.71-0.5 3.5-0.47 5.28-0.5l0.6501-0.02c0.24 72.56 0 145.12 0.1199 217.69-0.04 1.7499-0.26 3.52-0.57 5.26zm10.27-0.0801l-1.5498-0.04-1.96-0.04-1.52 0.3c-0.54-3.1-0.3801-6.2401-0.3701-9.35 0-53.7-0.02-107.4-0.01-161.1 0.1101-17.41-0.24-34.83 0.28-52.23l-0.03-0.33c1.73 0 3.47-0.01 5.21-0.01l-0.03 0.42c0.5901 23.73 0.1201 47.48 0.26 71.21 0.01 32 0 64 0 96-0.2 18.39 0.3901 36.8-0.2801 55.17zm5.1301 0.07c-0.3201-1.74-0.45-3.5-0.4001-5.24 0.02-72.56-0.0498-145.12 0.0701-217.69l0.5701 0.02c1.6699-0.01 3.3501-0.02 5.03-0.03 0.1099 74.26-0.0601 148.51 0.1099 222.77-1.8001 0.03-3.5999 0.08-5.38 0.17zm107.41-10.31c-30.61 0.03-61.22-0.06-91.84 0.04 0.0298 1.64 0.0298 3.28 0.1299 4.94 30.58-0.09 61.15 0.02 91.73-0.06l-0.0898 1.24c0.02 1.37 0.0598 2.76 0.1099 4.15-1.5601-0.09-3.1099-0.12-4.6201-0.38-30.54 0.58-61.11 0.04-91.66 0.26l-0.8799 0.03c0.1299-74.31-0.1401-148.62 0.1299-222.92 1.75 0.07 3.51 0.14 5.27 0.24-0.1699 58.86 0.02 117.73-0.0901 176.6l0.1401 0.06c30.53-0.45 61.09-0.06 91.63-0.2-0.0098 1.36-0.02 2.72-0.0098 4.09l0.0898 1.04c-30.6-0.02-61.2 0.03-91.8-0.03-0.03 1.67-0.05 3.36-0.0701 5.05 25.91 0.19 51.84 0.0099 77.76 0.08 4.7598 0.2 9.5898-0.46 14.31 0.38l-0.28 1.58c-0.0098 0.43-0.02 1.28-0.02 1.7l0.1101 1.44c-30.63 0-61.26-0.11-91.89 0.06l-0.4502 0.78c0.9001 1.27 0.9202 2.54 0.05 3.83 1.9402 0.8 4.0901 0.46 6.1399 0.53 25.99-0.06 51.99-0.0099 77.98-0.02 2.7698-0.01 5.5798-0.2 8.3298 0.33l-0.27 1.3c-0.0098 0.46-0.04 1.39-0.0598 1.86l0.3899 1.32c-2.75 0.56-5.5601 0.36-8.3398 0.36-27.97-0.05-55.93 0.06-83.9-0.06 0.0801 1.43 0.1199 2.87 0.1101 4.32 29.6 0.46 59.2 0.14 88.8 0.16 1.1802-0.07 2.3 0.15 3.3601 0.68l-0.4001 1.34c0.0301 1.28 0.0599 2.57 0.0999 3.88zm23.21-578.59c3.2002-5.1699 6.3901-10.51 10.6-14.9 1.3701-2.3198 3.1699-4.3599 5.26-6.0698 0.3401-0.99 1.1301-1.74 1.9199-2.4102l0.9402-0.97c0.3198-0.1499 0.96-0.4399 1.2798-0.5898 2.0901-3.54 5.6001-5.8601 8.6101-8.54 2.76-2.1001 5.3201-4.6401 8.45-6.1702 3.1602-2.3799 6.54-4.46 10.05-6.2998l0.04-0.27c8.0701-4.5 16.6-8.1602 25.41-10.92 1.9199-0.6099 3.9399-0.8699 5.95-0.99l-0.03-0.5c14.39-3.9199 29.43-3.6899 44.19-3.0498 2.7 0 5.4099 0.3198 8.03 1 5.52 0.75 10.89 2.3298 16.29 3.6799 10.45 3.2 20.43 7.8599 29.79 13.5 0.98 0.6799 9.77 6.8999 11.78 8.3201 3.5801 3.1199 7.5801 5.9099 10.44 9.77-0.2292 0.0107 5.79 5.8298 5.79 5.8298 3.71 3.96 7.49 8.1101 9.9102 13 1.2798 1.3801 2.3999 2.9001 3.3899 4.53 0.4399 0.8999 0.9001 1.8101 1.3801 2.73 17.05 28.02 21.66 63 13.86 94.74-1.1699 5.1802-5.1599 15.71-5.3599 15.87-1.7803 6.6299-10.837 21.72-10.81 22.08-1.1899 2.6702-3.25 4.8101-5.01 7.1001-2.3301 3.0601-4.5801 6.22-7.3601 8.8999-0.72 0.78-1.4399 1.5601-2.1399 2.3501-2.1301 2.8-4.8701 5.0701-7.4402 7.4399-7.7197 7.6301-17.22 13.68-26.79 18.91l-0.24-0.03c-1.1702 0.55-2.29 1.1299-3.4502 1.6699-8.3499 4.1499-17.27 6.92-26.21 9.44-1.3999 0.24-2.8198 0.47-4.1899 0.72-2.45 0.4501-4.8999 1.04-7.3999 0.8901-11.68 1.78-23.63 1.7899-35.3-0.0801-9.6001-0.49-18.74-3.97-27.87-6.72-0.2-0.3201-0.6099-0.9399-0.8098-1.26l-1.1902 0.22c-16.4-6.6099-31.38-16.75-43.65-29.48-0.04-0.04-0.1301-0.1299-0.1702-0.1699-13.81-14.27-24.24-31.81-30.07-50.8-10.5-33.83-6.1698-72.07 12.13-102.47zm272.51 588.68c-1.6699 0.04-3.3398 0.08-4.98 0.14-12.6-74.27-25.16-148.56-37.73-222.84 1.77 0.02 3.5601 0.04 5.3501 0.07 12.32 74.23 24.85 148.43 37.36 222.63zm-100.03-0.01c-2.0098 0.06-4.0098 0.1-6 0.13 21.52-49.09 43.04-98.18 64.55-147.28 0.97-3.2-0.6399-6.6-0.7898-9.85-8.5901 18.46-16.32 37.33-24.64 55.93-14.65 33.73-29.5 67.38-44.09 101.14-0.7859 0.0078-3.3213-0.0134-6.2368-0.0284l73.182-166.73-1.728-10.048-77.588 176.76c-2.4204 9e-3 -4.4209 0.041-5.1091 0.1189l-0.1379 1e-4 81.373-185.39-1.7283-10.048-85.786 195.44-5.2412 0.0046c29.86-67.97 59.62-135.99 89.45-203.97 0.5303-3.13-0.6699-6.4-1.5098-9.42-30.94 71.09-62.22 142.04-93.07 213.17-1.96 0.11-3.9202 0.18-5.8701 0.27-19.26-44.49-38.23-89.1-57.4-133.63-1.4001-3.17-2.5601-6.45-4.28-9.47-8.1099 47.67-16.28 95.33-24.34 143-1.6902 0-3.3701 0.01-5.0303 0.04 8.3701-50.1 16.65-100.22 25.01-150.32 0.5598-3.87-1.8801-7.36-3.05-10.91-9.2302 53.72-18.43 107.44-27.57 161.16-1.5801 0.02-3.1499 0.05-4.72 0.09 9.3298-55.67 18.71-111.34 28.07-167.02 0.96-3.96-2.0103-7.4-3.0801-11.03-2.1299 9.13-3.21 18.48-4.9399 27.7-8.4702 50.1-16.97 100.19-25.4 150.3-1.7898-0.02-3.5598-0.02-5.3298-0.01 10.56-62.05 20.94-124.13 31.44-186.19 0.1699-3.58-2.1001-6.78-3.53-9.93-11 65.39-22.12 130.76-33.3 196.13-1.6201 0.01-3.23 0.03-4.8398 0.08 11.22-68.13 22.98-136.17 34.31-204.27-0.71-3.2-2.21-6.3-3.99-9.04-11.8 71.09-23.85 142.14-35.8 213.21-1.7603 0-3.52 0-5.2603 0.02 12.56-74.26 25.2-148.51 37.67-222.78 1.8098-0.01 3.6299-0.02 5.47-0.03 31.01 72.1 61.73 144.32 92.61 216.48 1.0601-1.89 2.02-3.82 2.9102-5.78-30.14-70.17-59.99-140.46-90.1-210.64 1.8301-0.04 3.6699-0.06 5.52-0.08 29.17 67.9 58.12 135.89 87.21 203.83 0.9702-2.04 1.9102-4.09 2.8601-6.13-28.07-65.87-56.08-131.76-84.03-197.67 2-0.01 4.02 0 6.04-0.01 22.31 52.28 44.38 104.66 66.59 156.99 4.6401 11.19 9.6101 22.24 14.05 33.51 1.4202-1.95 2.3201-4.2 3.3701-6.35-26.28-61.41-52.86-122.7-79.07-184.14h5.8c25.19 59.13 50.7 118.11 75.77 177.29 0.8899-2.42 3.46-4.83 2.3298-7.52-24.25-56.59-48.54-113.18-72.77-169.78 1.8701 0 3.7402 0.01 5.6201 0.03 23.39 54.96 46.97 109.84 70.4 164.78 24.18-54.92 48.31-109.87 72.48-164.81 1.7102 0 3.4302 0 5.1702-0.01 12.67 74.27 25.16 148.56 37.76 222.84-1.79-0.03-3.5601-0.04-5.3201-0.03-7.75-46.19-15.64-92.35-23.5-138.51-20.54 46.01-40.62 92.24-60.84 138.4zm84.359 67.841c-13.232 0-23.958-10.726-23.958-23.958s10.727-23.958 23.958-23.958c13.232 0 23.958 10.726 23.958 23.958-1e-4 13.232-10.727 23.958-23.958 23.958zm21.031-67.742c-12.63-74.25-25.08-148.53-37.77-222.77 1.77-0.02 3.55-0.02 5.3398-0.03 12.53 74.28 25.13 148.55 37.69 222.82-1.77-0.02-3.52-0.02-5.26-0.02zm10.3 0.04c-12.39-74.28-24.89-148.55-37.4-222.82 1.6401 0 3.28 0 4.9399 0.0099 12.72 74.25 25.17 148.55 37.77 222.82-1.7798-0.0199-3.5498-0.0199-5.3098-0.01zm15.93 0.01c-1.76-0.04-3.51-0.05-5.24-0.06-12.56-74.25-25.16-148.5-37.69-222.76 1.73-0.0099 3.47-0.0099 5.22-0.02 12.6 74.27 25.18 148.55 37.71 222.84z"/>
</svg>
