<?xml version="1.0" encoding="UTF-8"?>
<svg viewBox="0 0 259.85355 284.16431" xmlns="http://www.w3.org/2000/svg" xmlns:xlink="http://www.w3.org/1999/xlink">
 <defs>
  <linearGradient id="a">
   <stop stop-color="#2e3436" offset="0"/>
   <stop stop-color="#555753" offset="1"/>
  </linearGradient>
  <linearGradient id="b">
   <stop stop-color="#babdb6" offset="0"/>
   <stop stop-color="#eeeeec" offset="1"/>
  </linearGradient>
  <linearGradient id="c">
   <stop stop-color="#d3d7cf" offset="0"/>
   <stop stop-color="#d3d7cf" offset="1"/>
  </linearGradient>
  <linearGradient id="r" x1="117" x2="323.05" y1="363.01" y2="503.65" gradientUnits="userSpaceOnUse">
   <stop stop-color="#2a2a2a" offset="0"/>
   <stop stop-color="#838485" offset="1"/>
  </linearGradient>
  <linearGradient id="q" x2="0" y1="919.16" y2="754.5" gradientTransform="matrix(-.69364 .72032 0 1 -71.84 -273.08)" gradientUnits="userSpaceOnUse">
   <stop stop-color="#2e3436" offset="0"/>
   <stop stop-color="#808182" offset="1"/>
  </linearGradient>
  <linearGradient id="n" x1="35" x2="256" y1="296.88" y2="340.01" gradientTransform="matrix(1 -.19519 0 1 -70.487 -272.46)" gradientUnits="userSpaceOnUse">
   <stop stop-color="#555753" offset="0"/>
   <stop stop-color="#babdb6" offset="1"/>
  </linearGradient>
  <linearGradient id="l" x1="75.5" x2="82.082" y1="304.74" y2="344.74" gradientUnits="userSpaceOnUse">
   <stop stop-color="#babdb6" offset="0"/>
   <stop stop-color="#d3d7cf" offset="1"/>
  </linearGradient>
  <linearGradient id="k" x1="91.5" x2="94.71" y1="302.86" y2="348.36" gradientUnits="userSpaceOnUse">
   <stop stop-color="#eeeeec" offset="0"/>
   <stop stop-color="#888a85" offset="1"/>
  </linearGradient>
  <linearGradient id="j" x1="41.877" x2="238.51" y1="43.689" y2="91.446" gradientUnits="userSpaceOnUse">
   <stop stop-color="#2e3436" offset="0"/>
   <stop stop-color="#babdb6" offset="1"/>
  </linearGradient>
  <linearGradient id="d" x1="23.25" x2="20.188" y1="61.852" y2="78.977" gradientUnits="userSpaceOnUse">
   <stop stop-color="#888a85" offset="0"/>
   <stop stop-color="#555753" offset="1"/>
  </linearGradient>
  <linearGradient id="p" x1="78.5" x2="314.66" y1="339.36" y2="380.28" gradientUnits="userSpaceOnUse" xlink:href="#b"/>
  <linearGradient id="o" x1="79" x2="315.16" y1="351.36" y2="392.28" gradientTransform="matrix(1 -.19852 0 1.0171 .5 -28.417)" gradientUnits="userSpaceOnUse" xlink:href="#b"/>
  <linearGradient id="m" x1="-478.39" x2="-478.4" y1="919.15" y2="754.5" gradientTransform="matrix(-.69364 .72032 0 1 -70.34 -516.58)" gradientUnits="userSpaceOnUse" xlink:href="#c"/>
  <linearGradient id="i" x1="-478.39" x2="-478.4" y1="919.15" y2="754.5" gradientTransform="matrix(-.69364 .72032 0 1 .3125 -171.44)" gradientUnits="userSpaceOnUse" xlink:href="#c"/>
  <linearGradient id="h" x1="126.25" x2="140.96" y1="342.63" y2="356.51" gradientUnits="userSpaceOnUse" xlink:href="#a"/>
  <linearGradient id="g" x1="173.84" x2="187.34" y1="353.56" y2="372.98" gradientUnits="userSpaceOnUse" xlink:href="#a"/>
  <linearGradient id="f" x1="224.84" x2="242.34" y1="365.31" y2="384.98" gradientUnits="userSpaceOnUse" xlink:href="#a"/>
  <linearGradient id="e" x1="515.06" x2="540.21" y1="344.01" y2="360.68" gradientUnits="userSpaceOnUse" xlink:href="#a"/>
 </defs>
 <g transform="translate(-71.84 -290.4)">
  <path transform="matrix(.97561,.21951,0,1,0,0)" d="m74.549 331.92h248.5v171.73l-248.5-6v-165.73z" fill="url(#r)"/>
  <path transform="translate(71.84 273.08)" d="m259.5 114.56-16.188 15.188v171.72l16.188-15.188v-171.72z" fill="url(#q)"/>
  <path d="m72.219 326v22l242.44 54.562v-22l-242.44-54.562z" fill="url(#p)"/>
  <path d="m331.65 365.93-16.188 15.188v22l16.188-15.188v-22z" fill="url(#i)"/>
  <path d="m331.69 387.16-16.188 15.188v2l16.188-15.188v-2z" fill="#eeeeec"/>
  <path d="m72.719 348v2l242.44 54.562v-2l-242.44-54.562z" fill="#eeeeec"/>
  <path transform="translate(71.84 273.08)" d="m15.781 38.188-15.781 14.594 244.16 55.031 15.061-14.646-243.44-54.979z" fill="url(#j)"/>
  <path d="m73.219 300.93v22.376l242.69 7.866-0.25-22.876-242.44-7.366z" fill="url(#o)"/>
  <path transform="translate(71.84 273.08)" d="m23.094 17.312-22.094 10.469 244.16 7.375 14.656-14.031-236.72-3.8125z" fill="url(#n)"/>
  <path transform="translate(71.84 273.08)" d="m259.5 22.188-14.688 13.781v22l14.688-13.781v-22z" fill="url(#m)"/>
  <path d="m72.719 326v2l242.44 54.562v-2l-242.44-54.562z" fill="#fff"/>
  <path d="m74.719 299.5v2l242.19 7.0625 0.25-1.5-242.44-7.5625z" fill="#fff"/>
  <path d="m331.63 365.76-16.188 15.188v2l16.188-15.188v-2z" fill="#fff"/>
  <path d="m331 293.75-13.844 13.312v2l13.844-13.312v-2z" fill="#fff"/>
  <path transform="matrix(.97574,.21892,-.63218,.77482,0,0)" d="m510.8 339.65h29l-2.008 21.712h-29l2.008-21.712z" fill="url(#e)"/>
  <path d="m224.94 362.25 28.297 6.3488-15.685 16.384-28.297-6.3488 15.685-16.384z" fill="url(#f)"/>
  <path d="m171.94 350.25 28.297 6.3488-15.685 16.384-28.297-6.3488 15.685-16.384z" fill="url(#g)"/>
  <path d="m119.94 338.25 28.297 6.3488-15.685 16.384-28.297-6.3488 15.685-16.384z" fill="url(#h)"/>
  <g transform="matrix(-.97168 -.23631 -.23631 .97168 491.1 45.5)" fill="#2e3436">
   <path d="m283.69 335 28.297 6.3488-15.685 16.384-28.297-6.3488 15.685-16.384z"/>
   <path d="m224.94 322.25 28.297 6.3488-15.685 16.384-28.297-6.3488 15.685-16.384z"/>
   <path d="m171.81 310.82 28.297 6.3488-15.685 16.384-28.297-6.3488 15.685-16.384z"/>
   <path d="m119.94 300.25 28.297 6.3488-15.685 16.384-28.297-6.3488 15.685-16.384z"/>
  </g>
  <path d="m92.876 301.97 2.4749 0.35356 0.88388 21.036-2.1213 0.35355-1.2374-21.744z" fill="#888a85"/>
  <path transform="translate(71.84 273.08)" d="m22.25 59.477 0.78395-1.6582 1.617 0.43107-0.65097 1.8522-0.01785 0.8745-0.23215 11.376c-1.1556 3.8133-4.625 5.625-7.375 6.625l4-4 2.25-4.5-0.375-11z" fill="url(#d)"/>
  <path d="m84.832 297.17a9.8784 9.8784 0 0 1 9.8784 9.8784v35.398a9.8784 9.8784 0 0 1 -9.8784 9.8784 9.8784 9.8784 0 0 1 -9.8784 -9.8784v-35.398a9.8784 9.8784 0 0 1 9.8784 -9.8784" fill="url(#k)"/>
  <path d="m82.082 297.67a9.8784 9.8784 0 0 1 9.8784 9.8784v35.398a9.8784 9.8784 0 0 1 -9.8784 9.8784 9.8784 9.8784 0 0 1 -9.8784 -9.8784v-35.398a9.8784 9.8784 0 0 1 9.8784 -9.8784" fill="url(#l)"/>
  <path transform="matrix(1.2333 0 0 1.2333 -20.706 -69.493)" d="m88.742 309.19c0 2.9289-2.3744 5.3033-5.3033 5.3033s-5.3033-2.3744-5.3033-5.3033 2.3744-5.3033 5.3033-5.3033 5.3033 2.3744 5.3033 5.3033z" fill="#c8cbc4"/>
  <path d="m82.062 305.31c-3.6124 0-6.5312 2.9189-6.5312 6.5312s2.9189 6.5312 6.5312 6.5312c0.39736 0 0.80968-0.0259 1.1875-0.0937-3.042-0.56127-5.3438-3.233-5.3438-6.4375s2.3017-5.8762 5.3438-6.4375c-0.37782-0.0679-0.79014-0.0937-1.1875-0.0937z" fill="#eeeeec"/>
  <path transform="matrix(1.2333 0 0 1.2333 -20.706 -41.493)" d="m88.742 309.19c0 2.9289-2.3744 5.3033-5.3033 5.3033s-5.3033-2.3744-5.3033-5.3033 2.3744-5.3033 5.3033-5.3033 5.3033 2.3744 5.3033 5.3033z" fill="#c8cbc4"/>
  <path d="m82.062 333.31c-3.6124 0-6.5312 2.9189-6.5312 6.5312s2.9189 6.5312 6.5312 6.5312c0.39736 0 0.80968-0.0259 1.1875-0.0937-3.042-0.56127-5.3438-3.233-5.3438-6.4375s2.3017-5.8762 5.3438-6.4375c-0.37782-0.0679-0.79014-0.0937-1.1875-0.0937z" fill="#eeeeec"/>
  <path transform="rotate(22.039)" d="m194.13068,253.08765a.35355,.35355 0 0,1 .35355.35355v9.36917a.35355,.35355 0 0,1 -.35355.35355 .35355,.35355 0 0,1 -.35355-.35355v-9.36917a.35355,.35355 0 0,1 .35355-.35355" fill="#eeeeec"/>
  <path transform="matrix(.95706,-.2899,.2899,.95706,0,0)" d="m-18.72114,344.5889a.35355,.35355 0 0,1 .35355.35355v9.36917a.35355,.35355 0 0,1 -.35355.35355 .35355,.35355 0 0,1 -.35355-.35355v-9.36917a.35355,.35355 0 0,1 .35355-.35355" fill="#eeeeec"/>
  <path d="m196.65 423.93-3-1.033v70.116l3 1.033v-70.116z" fill="#d3d7cf"/>
  <g transform="matrix(1 .24438 0 1 67.38 132.58)" fill="#fff" font-family="Yanone Kaffeesatz" font-size="22" font-style="italic" letter-spacing="0" word-spacing="0">
   <path d="m27.946 245.66c4.166-0.73319 0.97935-7.4577 6.4388-7.0078 6.2555-2.9922-0.49567-12.947-3.7969-6.4878-0.77856 4.5166-1.7657 8.9967-2.6419 13.496zm6.864-11.242c-1.0852 5.5542-4.9726 1.8247-2.6085-1.8295 0.8724-2.1277 3.7865 0.20047 2.6085 1.8295z"/>
   <path d="m35.852 245.66c3.7863 0.54391 2.1936-11.063 4.9657-3.4761-0.88428 4.6852 3.0964 3.6582 1.3427 0.0213 1.6125-4.0374 5.018-15.06-3.315-11.049-1.1831 4.7038-1.9415 9.6867-2.9934 14.504zm6.842-11.132c-1.7184 7.3358-5.7677-1.5661-1.1108-2.7206 1.2233 0.19985 1.6225 1.7251 1.1108 2.7206z"/>
   <path d="m45.206 237.87c-4.491 6.333 6.2834 11.689 7.5124 3.1917 4.8562-6.4677-3.3709-16.197-6.7038-6.3673-0.34445 1.0381-0.58081 2.1074-0.80868 3.1757zm1.914 0.44c-1.2212-4.621 6.6043-9.2697 4.8042-1.7095 0.62543 4.6307-6.3805 10.657-4.9935 2.7473l0.18921-1.0378z"/>
   <path d="m57.037 230.26c-2.0173 3.3915-1.8195 7.6998-2.8955 11.502-2.7111 4.7659 2.8211 5.2097 5.4248 1.8682 2.8873-3.6107 5.9075-15.115-2.5294-13.37zm3.058 6.732c0.98016 5.0922-6.9201 9.6543-3.6228 2.0061l1.4228-7.0881c3.2873-0.7764 2.682 3.2082 2.2 5.082z"/>
   <path d="m66.905 230.26c-4.1953 1.7386-3.2808 9.7179-4.0064 13.879 5.2761 5.8996 8.5834-2.6217 8.5725-7.4594-0.13928-1.927 2.8551-7.4695-0.4201-5.9793-1.2341 4.2331-1.8221 8.7602-2.8041 13.134-6.4998 1.2302-2.0691-7.5429-1.7773-11.406l0.43531-2.1678z"/>
   <path d="m78.818 229.97c-6.6588 0.84492-9.9717 17.312-1.8321 15.366 2.4718-3.1646-4.5379-0.38626-2.7763-4.7246-1.0733-4.6141 5.2026-8.7173 5.6525-10.517l-1.0441-0.12393z"/>
   <path d="m88.539 231.93c2.0653-4.003-12.487-0.94415-4.7938 0.46318-0.40553 4.4204-1.6892 8.8324-2.4442 13.265 3.9637-1.116 2.4683-7.2164 3.9183-10.67 0.44824-2.6536 0.14323-3.5646 3.3197-3.0585z"/>
   <path d="m87.286 245.66c3.9326-0.90043 2.4403-6.9694 3.86-10.288 1.1134-2.632 1.0807-8.0402-1.3716-2.7406-0.56745 4.373-1.7043 8.6743-2.4884 13.028z"/>
   <path d="m92.257 237.87c-4.491 6.333 6.2834 11.689 7.5124 3.1917 4.8562-6.4677-3.3709-16.197-6.7038-6.3673-0.34445 1.0381-0.58081 2.1074-0.80868 3.1757zm1.914 0.44c-1.2212-4.621 6.6043-9.2697 4.8042-1.7095 0.62543 4.6307-6.3805 10.657-4.9935 2.7473l0.18921-1.0378z"/>
   <path d="m106.55 245.66c3.6818-0.73214 2.2902-6.479 3.6188-9.5226 0.31608-2.0158 2.4504-8.5044-1.0211-4.4714-0.56294 2.0418-1.1788 10.649-2.0893 9.178-0.0133-2.9542-1.7998-15.237-4.1683-7.8761-0.72182 4.2363-1.695 8.4556-2.5001 12.692 4.3956 0.0231 2.2519-11.809 4.3116-10.529 0.18409 3.5751 1.1367 7.038 1.8484 10.529z"/>
  </g>
  <g transform="matrix(1 .24438 0 1 64.662 208.75)" fill="#fff" font-family="Yanone Kaffeesatz" font-size="16" font-style="italic" letter-spacing="0" word-spacing="0">
   <path d="m28.824 237.38c-1.2104 3.5536 4.5631 1.8748 1.4253 0.0706-0.49527-4.2478 3.3474-4.5044 1.2588-7.8709-1.6997-1.3624-2.1543 5.0869-2.6841 7.8002z"/>
   <path d="m33.592 232.33c4.2604 0.759 3.0715 2.5038-0.32576 3.2054-2.6095 5.804 5.3438 5.2284 4.4636-0.16818 1.0593-3.5129-1.1351-5.3112-4.1379-3.0372zm2.576 3.504c0.14877 7.2975-5.4085-0.45751 0 0z"/>
   <path d="m38.048 239.61c1.9125-1.041 3.6179-6.4725 3.6857-0.57256 3.0378 0.39894-0.19674-4.6904 2.3086-6.2989-2.5095-1.5791-2.7873-1.5025-2.9204-4.4762-2.0162 1.6814-1.5121 5.5562-2.4376 8.1751l-0.63634 3.1726zm4.496-6.336c-1.6672 4.826-3.6045-1.2659 0 0z"/>
   <path d="m48.241 231.45c-6.0333-0.86373-3.8326 12.655 0.512 6.56-3.9082 2.3881-3.0602-3.779 0.416-1.904 0.47989-1.3585 1.6645-4.6569-0.928-4.656zm-0.368 1.136c3.2449 3.6497-6.0882 3.4926 0 0z"/>
  </g>
  <g transform="matrix(1 .24438 0 1 64.173 234.96)" fill="#fff" font-family="Yanone Kaffeesatz" font-size="18" font-style="italic" letter-spacing="0" word-spacing="0">
   <path d="m33.966 233.25c-7.9368-4.4774-4.4895 12.667-2.9974 7.0963-3.3738-1.0324 0.31861-7.9376 2.9974-7.0963z"/>
   <path d="m34.803 233.43c4.42 0.61938 3.922 2.9421-0.06857 3.3761-4.1724 5.4491 5.261 7.2003 4.4313 1.0439 1.3898-3.5841-0.03027-7.8116-4.3627-4.42zm2.898 3.942c-0.36254 7.3722-5.5422-0.73357 0 0z"/>
   <path d="m43.38 241.62c3.2681 0.0699 2.0196-10.828 4.7313-6.2232-0.96017 2.5283-1.103 9.3507 1.0266 3.3248 4.2817-6.0526-6.5399-9.3157-8.0682-3.3964 0.11085 1.7271-2.6956 7.6759 0.26608 5.4993-0.03443-2.177 2.7114-10.554 3.1522-4.491-0.18156 1.8027-0.83614 3.4992-1.1079 5.2865z"/>
   <path d="m54.693 232.44c-6.2724-0.44857-5.1056 13.376 0.40666 8.0975-8.2371-1.6801 3.3514-1.9054 1.321-6.8196l-0.62165-0.84415-1.106-0.43375zm-0.414 1.278c3.4325 4.4545-5.8751 2.8242 0 0z"/>
   <path d="m56.427 241.62c3.563-1.3256 1.5366-7.588 4.9543-8.9062-5.1136-1.1328-3.67 6.0137-4.9543 8.9062z"/>
   <path d="m62.541 233.43c4.42 0.61938 3.922 2.9421-0.06857 3.3761-4.1724 5.4491 5.261 7.2003 4.4313 1.0439 1.2588-3.7768 0.23589-7.6902-4.3627-4.42zm2.898 3.942c-0.36254 7.3722-5.5422-0.73357 0 0z"/>
  </g>
  <path d="m72.92 394.88v2.433l241.91 54.44v-2.4331l-241.91-54.44z" fill="#babdb6"/>
  <g transform="matrix(1 .24438 0 1 173.09 192.97)" fill="#fff" font-family="Yanone Kaffeesatz" font-size="18" font-style="italic" letter-spacing="0" word-spacing="0">
   <path d="m31.914 240.22c-6.2844-0.0746 3.4278-11.039 0.48394-2.4407l-0.48394 2.4407zm1.476-7.416c-8.4177-2.3378-4.3024 15.819 0.22434 6.1682l2.1156-10.578c-2.5489-0.44439-1.6059 3.0972-2.34 4.41z"/>
   <path d="m36.139 233.43c4.42 0.61929 3.9222 2.9421-0.06857 3.3761-4.1724 5.4491 5.2611 7.2003 4.4313 1.0439 1.3899-3.5841-0.03028-7.8116-4.3627-4.42zm2.898 3.942c-0.36239 7.372-5.5423-0.73331 0 0z"/>
   <path d="m42.06 239.12c-1.44 3.9781 5.1678 2.113 1.6064 0.15636-0.64212-4.599 3.7929-5.1104 1.3612-8.8833-0.31265-2.466-3.536 3.9016-2.2375 5.5628-0.27421 1.0481-0.7435 2.0528-0.73015 3.1642z"/>
   <path d="m50.404 232.44c-6.2724-0.44857-5.1056 13.376 0.40666 8.0975-8.2371-1.6801 3.3514-1.9054 1.321-6.8196l-0.62165-0.84415-1.106-0.43375zm-0.414 1.278c3.4325 4.4545-5.8751 2.8242 0 0z"/>
  </g>
  <g transform="matrix(1 .24438 0 1 65.88 170.08)" fill="#fff" font-family="Yanone Kaffeesatz" font-size="16" font-style="italic" letter-spacing="0" word-spacing="0">
   <path d="m31.736 231.45c-6.683-1.0254 2.6836 8.681-3.744 6.752 1.5377 4.8837 7.282-3.2118 2.4217-4.6618 0.58147-1.3994 5.377-1.0987 1.3223-2.0902z"/>
   <path d="m38.723 232.17c-7.1622-3.9149-3.7945 11.168-2.6955 6.3729-3.0728-0.66967 0.3729-7.3806 2.6955-6.3729z"/>
   <path d="m42.241 231.45c-6.0333-0.86373-3.8326 12.655 0.512 6.56-3.9082 2.3881-3.0602-3.779 0.416-1.904 0.47989-1.3585 1.6645-4.6569-0.928-4.656zm-0.368 1.136c3.2449 3.6497-6.0882 3.4926 0 0z"/>
   <path d="m43.782 239.61c2.6771-0.63475 2.6136-11.063 4.4406-4.5362-1.8408 3.1209-0.17336 6.5451 1.0352 1.7606 2.8295-4.6624-3.6012-8.027-4.6652-2.1482-0.37902 1.6302-0.36804 3.2982-0.81067 4.9238z"/>
   <path d="m54.148 231.45c-6.0333-0.86373-3.8326 12.655 0.512 6.56-3.9082 2.3881-3.0602-3.779 0.416-1.904 0.47989-1.3585 1.6645-4.6569-0.928-4.656zm-0.368 1.136c3.2449 3.6497-6.0882 3.4926 0 0z"/>
  </g>
  <g transform="matrix(1 .24438 0 1 173.09 224.97)" fill="#fff" font-family="Yanone Kaffeesatz" font-size="18" font-style="italic" letter-spacing="0" word-spacing="0">
   <path d="m31.914 240.22c-6.2844-0.0746 3.4278-11.039 0.48394-2.4407l-0.48394 2.4407zm1.476-7.416c-8.4177-2.3378-4.3024 15.819 0.22434 6.1682l2.1156-10.578c-2.5489-0.44439-1.6059 3.0972-2.34 4.41z"/>
   <path d="m38.083 232.62c-3.7842 0.53444-3.3876 14.026-0.88863 5.5508-0.06459-1.8779 0.61018-3.703 0.88863-5.5508zm-0.9-2.862c1.2419 3.8651 2.1674-3.7837 0 0z"/>
   <path d="m37.935 241.62c3.561-1.3283 1.5416-7.5904 4.9527-8.9074-5.1121-1.1292-3.6682 6.0156-4.9527 8.9074z"/>
   <path d="m47.064 232.44c-6.2724-0.44857-5.1056 13.376 0.40666 8.0975-8.2371-1.6801 3.3514-1.9054 1.321-6.8196l-0.62165-0.84415-1.106-0.43375zm-0.414 1.278c3.4325 4.4545-5.8751 2.8242 0 0z"/>
   <path d="m54.954 233.25c-7.9368-4.4774-4.4895 12.667-2.9974 7.0963-3.3738-1.0324 0.31861-7.9376 2.9974-7.0963z"/>
   <path d="m55.771 239.12c-1.44 3.9781 5.1678 2.113 1.6064 0.15636-0.64212-4.599 3.7929-5.1104 1.3612-8.8833-0.31265-2.466-3.536 3.9016-2.2375 5.5628-0.27421 1.0481-0.7435 2.0528-0.73015 3.1642z"/>
   <path d="m59.973 237.12c-2.0407 10.523 12.356-2.0366 3.9144-4.7252-2.0875 0.43111-4.0609 2.5087-3.9144 4.7252zm1.584 0.036c1.9047-8.6259 4.8464 5.0695-0.20542 2.8784-0.2611-0.94945 0.07393-1.9391 0.20542-2.8784z"/>
   <path d="m66.06 241.62c3.561-1.3283 1.5416-7.5904 4.9527-8.9074-5.1121-1.1292-3.6682 6.0156-4.9527 8.9074z"/>
  </g>
  <path d="m72.92 462.88v2.4179l242.62 58.101v-2.4179l-242.62-58.101z" fill="#d3d7cf"/>
  <path d="m314.23 380.51 1.4855-0.50508v193.92l-1.4855-1.5152v-191.9z" fill="#eeeeec"/>
  <path d="m72.92 428.88v2.433l241.91 54.44v-2.4331l-241.91-54.44z" fill="#babdb6"/>
 </g>
</svg>
